<?xml version="1.0" encoding="utf-8"?>
<!-- Generator: Adobe Illustrator 15.0.2, SVG Export Plug-In . SVG Version: 6.00 Build 0)  -->
<!DOCTYPE svg PUBLIC "-//W3C//DTD SVG 1.1//EN" "http://www.w3.org/Graphics/SVG/1.1/DTD/svg11.dtd">
<svg version="1.1" id="Ebene_1" xmlns="http://www.w3.org/2000/svg" xmlns:xlink="http://www.w3.org/1999/xlink" x="0px" y="0px"
	 width="138px" height="138px" viewBox="0 0 138 138" enable-background="new 0 0 138 138" xml:space="preserve">
<g>
	<path fill="#E35027" d="M23.901,116.014L14,9.999h108.91l-9.9,106.015L68.334,128"/>
	<path fill="#EC662B" d="M68.576,118.781l35.981-9.451l8.452-90.804H68.576"/>
	<path fill="#EBEBEB" d="M68.576,57.936H50.465l-1.208-13.366h19.319V31.663h-0.242H34.285l0.242,3.458l3.38,35.954h30.669V57.936z
		 M68.576,91.816h-0.242l-15.213-3.918l-0.966-10.371H44.91h-6.279l1.69,20.51l28.012,7.375h0.242V91.816z"/>
	<path fill="#FFFFFF" d="M68.334,57.936v13.139h16.905l-1.69,16.824l-15.215,3.918v13.596l28.014-7.375l0.241-2.303l3.14-34.34
		l0.482-3.459h-3.863H68.334z M68.334,31.663v8.066v4.84l0,0h33.085l0,0l0,0l0.241-2.765l0.725-6.684l0.241-3.458H68.334z"/>
</g>
</svg>
